<svg xmlns="http://www.w3.org/2000/svg" xmlns:xlink="http://www.w3.org/1999/xlink" version="1.1" x="0px" y="0px" viewBox="0 0 1000 1250" enable-background="new 0 0 1000 1000" xml:space="preserve"><path d="M793.604,362.996c11.966-11.965,21.362-25.905,27.93-41.432c6.804-16.086,10.254-33.161,10.254-50.751  s-3.45-34.665-10.254-50.752c-6.567-15.526-15.964-29.466-27.93-41.432s-25.905-21.362-41.432-27.93  c-16.087-6.804-33.162-10.254-50.751-10.254c-17.59,0-34.665,3.45-50.752,10.254c-15.526,6.567-29.466,15.964-41.432,27.93  c-10.5,10.5-18.887,22.519-25.254,35.797c-8.202-3.34-16.983-6.302-24.983-8.85v-23.414c0-10.006-2.152-19.77-6.132-29.02  c-3.799-8.83-9.271-16.782-16.132-23.637c-6.859-6.852-14.849-12.25-23.682-16.042c-9.249-3.972-19.026-5.986-29.028-5.986  c-9.976,0-19.758,2.002-29.058,5.95c-8.879,3.77-16.905,9.127-23.846,15.924c-6.991,6.847-12.268,14.785-16.16,23.595  c-4.117,9.318-5.962,19.147-5.962,29.216v24.188c-17,4.9-32.429,11.206-47.197,18.827c-23.105,11.924-43.577,26.906-60.606,44.533  c-19.478,20.162-34.692,43.824-45.102,70.329c-5.605,14.272-9.932,29.576-12.8,45.488c-2.985,16.564-4.514,34.213-4.514,52.456  c0,66.975-9.339,127.47-26.993,174.945c-13.087,35.195-26.415,51.869-28.782,54.663l-0.601,0.599  c-7.773,7.773-12.591,17.504-14.107,28.923L168,698.553v1.453v48.807V771h22.183h202.9l-0.939,3.715  c-2.074,8.449-2.959,15.527-2.959,23.794c0,12.636,2.511,24.908,7.464,36.53c4.76,11.169,11.553,21.199,20.192,29.838  c8.639,8.64,18.682,15.427,29.851,20.187c11.622,4.953,23.921,7.462,36.557,7.462c12.637,0,24.937-2.514,36.559-7.467  c11.169-4.76,21.212-11.556,29.852-20.194c8.639-8.64,15.432-18.685,20.191-29.854c4.953-11.621,7.464-23.921,7.464-36.557  c0-7.934-0.968-15.623-2.959-23.736L573.417,771h202.82H798v-22.188v-48.807v-0.971l0.018-0.967  c-0.477-5.382-1.765-10.623-3.93-15.58c-1.982-4.536-4.641-8.852-7.953-12.826l-0.63-0.772l-0.3-0.305  c-1.617-1.882-15.125-18.212-28.46-52.921c-12.896-33.566-28.265-91.773-28.265-178.456c0-13.151-0.797-26.047-2.366-38.36  c8.912-1.709,17.62-4.354,26.058-7.922C767.697,384.358,781.638,374.962,793.604,362.996z M483.243,870.551  c-39.536,0-72.091-32.482-72.091-72.02c0-6.977,0.778-12.531,2.329-18.531h139.484h0.027c1.55,6,2.339,12.328,2.339,18.531  C555.331,838.066,522.779,870.551,483.243,870.551z M769.164,683.727c3.875,4.65,6.836,10.078,6.836,16.279V749H190v-48.994  c1-6.201,3.196-11.629,7.848-16.279c0.775,0,62.602-67.444,62.602-245.743C260.45,298.445,354,241.08,430,223.25v-41.086  c0-28.683,25.205-52.714,53.888-52.714c28.683,0,53.112,24.031,53.112,52.714v40.312c13,2.977,25.953,7.082,39.162,12.494  c-3.314,11.592-5.049,23.593-5.049,35.845c0,17.59,3.42,34.665,10.225,50.751c6.566,15.526,15.948,29.466,27.914,41.432  c11.966,11.966,25.898,21.362,41.424,27.93c16.086,6.804,33.159,10.254,50.749,10.254c0.947,0,1.893-0.012,2.838-0.032  c1.471,11.368,2.189,23.376,2.189,36.06C706.452,615.508,768.389,682.951,769.164,683.727z M718.179,377.921  c-5.462,0.848-11.059,1.289-16.758,1.289c-59.866,0-108.397-48.531-108.397-108.396c0-15.426,3.223-30.099,9.03-43.383  c16.732-38.271,54.927-65.013,99.367-65.013c59.865,0,108.396,48.53,108.396,108.396  C809.817,324.979,770.087,369.864,718.179,377.921z"/><text x="0" y="1015" fill="#000000" font-size="5px" font-weight="bold" font-family="'Helvetica Neue', Helvetica, Arial-Unicode, Arial, Sans-serif">Created by rasendria</text><text x="0" y="1020" fill="#000000" font-size="5px" font-weight="bold" font-family="'Helvetica Neue', Helvetica, Arial-Unicode, Arial, Sans-serif">from the Noun Project</text></svg>